# xmcd
# 
# Track frame offsets:
#     150
#     16924
#     30787
#     46085
#     67470
#     85344
#     102549
#     121994
#     139226
#     156857
#     177768
#     193075
#     207097
# 
# Disc length: 2906
# 
# Revision: 0
# Processed by: cddbd v1.5.2PL0 Copyright (c) Steve Scherf et al.
# Submitted via: fre:ac v1.0.17
# 
DISCID=af0b580d
DTITLE=Owen Campbell - Sunshine Road
DYEAR=2011
DGENRE=Blues
TTITLE0=01 Sunshine Road
TTITLE1=02 Holy To Me
TTITLE2=03 A Mountain Home
TTITLE3=04 Diggin Holes
TTITLE4=05 Bobby The Leaper
TTITLE5=06 Glory Boy
TTITLE6=07 Mean Ol Devil and a Futile God
TTITLE7=08 A Masterpiece With You
TTITLE8=09 Jungle Man
TTITLE9=10 War In The East
TTITLE10=11 Flowers In The Gulags
TTITLE11=12 Nashville Highrollers
TTITLE12=13 Thirsty Now
EXTD=
EXTT0=
EXTT1=
EXTT2=
EXTT3=
EXTT4=
EXTT5=
EXTT6=
EXTT7=
EXTT8=
EXTT9=
EXTT10=
EXTT11=
EXTT12=
PLAYORDER=
